<?xml version="1.0" standalone="no"?>
<!DOCTYPE svg PUBLIC "-//W3C//DTD SVG 20010904//EN"
 "http://www.w3.org/TR/2001/REC-SVG-20010904/DTD/svg10.dtd">
<svg version="1.0" xmlns="http://www.w3.org/2000/svg"
 width="64.000000pt" height="64.000000pt" viewBox="0 0 64.000000 64.000000"
 preserveAspectRatio="xMidYMid meet">

<g transform="translate(0.000000,64.000000) scale(0.100000,-0.100000)"
fill="#000000" stroke="none">
<path d="M277 612 c-18 -20 -23 -92 -7 -92 6 0 10 13 10 29 0 28 22 61 40 61
23 0 40 -34 40 -78 0 -41 -9 -62 -65 -152 -61 -98 -65 -108 -65 -165 0 -33 -3
-77 -6 -97 -6 -32 -11 -38 -30 -38 -19 0 -24 -5 -24 -25 0 -23 -4 -25 -45 -25
-25 0 -45 -4 -45 -10 0 -6 27 -10 60 -10 58 0 60 1 60 25 l0 26 115 -3 c135
-3 161 -22 38 -26 -46 -2 -83 -7 -83 -12 0 -6 72 -10 180 -10 108 0 180 4 180
10 0 5 -37 10 -82 12 -77 3 -83 5 -86 25 -2 14 -11 23 -25 25 -21 3 -22 7 -25
155 l-3 151 76 18 c49 11 75 23 75 32 0 8 -7 11 -17 9 -10 -3 -31 -8 -48 -12
-16 -3 -47 -11 -67 -16 l-38 -10 -2 -162 -3 -162 -69 -3 -69 -3 6 97 c7 96 7
96 67 194 57 93 60 100 60 162 0 50 -4 69 -18 81 -24 22 -65 21 -85 -1z"/>
<path d="M20 480 c0 -6 55 -10 145 -10 90 0 145 4 145 10 0 6 -55 10 -145 10
-90 0 -145 -4 -145 -10z"/>
<path d="M410 480 c0 -6 40 -10 100 -10 60 0 100 4 100 10 0 6 -40 10 -100 10
-60 0 -100 -4 -100 -10z"/>
<path d="M75 440 c-6 -10 33 -30 58 -30 32 0 87 -22 87 -35 0 -8 7 -15 15 -15
9 0 15 9 15 25 0 19 -7 26 -27 31 -46 10 -107 25 -125 30 -9 3 -19 0 -23 -6z"/>
<path d="M10 20 c0 -5 5 -10 10 -10 6 0 10 5 10 10 0 6 -4 10 -10 10 -5 0 -10
-4 -10 -10z"/>
</g>
</svg>
